<svg width="87" height="87" viewBox="0 0 87 87" fill="none" xmlns="http://www.w3.org/2000/svg">
<g id="Ai2 Monogram">
<path id="Vector" d="M34.7469 33.6364H17.3734V17.2383H31.3594C33.2268 17.2383 34.7469 15.73 34.7469 13.8772V0H51.2734V17.2383C51.2734 26.2965 43.8761 33.6364 34.7469 33.6364ZM17.3734 35.3169H0V51.7149H13.986C15.8533 51.7149 17.3734 53.2232 17.3734 55.0761V68.9533H33.9V51.7149C33.9 42.6567 26.5026 35.3169 17.3734 35.3169ZM72.8812 34.4766C71.0139 34.4766 69.4938 32.9683 69.4938 31.1155V17.2383H52.9672V34.4766C52.9672 43.5348 60.3645 50.8747 69.4938 50.8747H86.8672V34.4766H72.8812ZM35.5937 68.9533V86.1916H52.1203V72.3144C52.1203 70.4616 53.6404 68.9533 55.5078 68.9533H69.4938V52.5552H52.1203C42.9911 52.5552 35.5937 59.8951 35.5937 68.9533Z" fill="#F0529C"/>
</g>
</svg>
