<svg width="46" height="46" viewBox="0 0 46 46" fill="none" xmlns="http://www.w3.org/2000/svg">
<g id="Group 142">
<g id="Group 37">
<g id="Group 36">
<circle id="Ellipse 6" cx="23" cy="23" r="23" fill="#0DCB8C"/>
</g>
</g>
<g id="Group 47">
<path id="Vector" d="M33.1783 31.4811H12.8218C12.5219 31.4811 12.2342 31.6003 12.0222 31.8124C11.8101 32.0245 11.6909 32.3121 11.6909 32.6121C11.6909 32.912 11.8101 33.1996 12.0222 33.4117C12.2342 33.6238 12.5219 33.743 12.8218 33.743H33.1783C33.4783 33.743 33.7659 33.6238 33.978 33.4117C34.1901 33.1996 34.3092 32.912 34.3092 32.6121C34.3092 32.3121 34.1901 32.0245 33.978 31.8124C33.7659 31.6003 33.4783 31.4811 33.1783 31.4811Z" fill="#042024"/>
<path id="Vector_2" d="M23.0003 12.256C22.7004 12.256 22.4127 12.3751 22.2006 12.5872C21.9886 12.7993 21.8694 13.087 21.8694 13.3869V25.3633L18.1487 21.6313C17.9357 21.4183 17.6469 21.2987 17.3457 21.2987C17.0446 21.2987 16.7558 21.4183 16.5428 21.6313C16.3298 21.8442 16.2102 22.1331 16.2102 22.4342C16.2102 22.7354 16.3298 23.0242 16.5428 23.2372L22.1974 28.8918C22.3025 28.9978 22.4276 29.0819 22.5654 29.1393C22.7032 29.1967 22.851 29.2263 23.0003 29.2263C23.1496 29.2263 23.2974 29.1967 23.4353 29.1393C23.5731 29.0819 23.6981 28.9978 23.8033 28.8918L29.4579 23.2372C29.5633 23.1317 29.6469 23.0065 29.704 22.8688C29.7611 22.731 29.7904 22.5833 29.7904 22.4342C29.7904 22.2851 29.7611 22.1374 29.704 21.9997C29.6469 21.8619 29.5633 21.7367 29.4579 21.6313C29.3524 21.5258 29.2272 21.4422 29.0895 21.3851C28.9517 21.3281 28.804 21.2987 28.6549 21.2987C28.5058 21.2987 28.3581 21.3281 28.2204 21.3851C28.0826 21.4422 27.9574 21.5258 27.852 21.6313L24.1312 25.3633V13.3869C24.1312 13.087 24.0121 12.7993 23.8 12.5872C23.5879 12.3751 23.3003 12.256 23.0003 12.256Z" fill="#042024"/>
</g>
</g>
</svg>
