<svg width="19" height="19" viewBox="0 0 19 19" fill="none" xmlns="http://www.w3.org/2000/svg">
<g id="Ai2 Monogram">
<path id="Vector" d="M7.2726 7.04017H3.6363V3.60802H6.5636C6.95444 3.60802 7.2726 3.29233 7.2726 2.90453V0H10.7317V3.60802C10.7317 5.50392 9.18337 7.04017 7.2726 7.04017ZM3.6363 7.39191H0V10.8241H2.9273C3.31814 10.8241 3.6363 11.1397 3.6363 11.5275V14.4321H7.09535V10.8241C7.09535 8.92816 5.54707 7.39191 3.6363 7.39191ZM15.2542 7.21604C14.8634 7.21604 14.5452 6.90035 14.5452 6.51255V3.60802H11.0862V7.21604C11.0862 9.11194 12.6344 10.6482 14.5452 10.6482H18.1815V7.21604H15.2542ZM7.44985 14.4321V18.0401H10.9089V15.1356C10.9089 14.7478 11.2271 14.4321 11.6179 14.4321H14.5452V10.9999H10.9089C8.99814 10.9999 7.44985 12.5362 7.44985 14.4321Z" fill="#FAF2E9"/>
</g>
</svg>
