<svg width="15" height="15" viewBox="0 0 15 15" fill="none" xmlns="http://www.w3.org/2000/svg">
<path d="M14.3329 12.7882L2.32252 0.777778C2.14555 0.600814 1.90554 0.501396 1.65527 0.501396C1.40501 0.501396 1.16499 0.600814 0.98803 0.777778C0.811066 0.954742 0.711648 1.19476 0.711648 1.44502C0.711648 1.69529 0.811066 1.9353 0.98803 2.11227L12.9984 14.1226C13.1754 14.2996 13.4154 14.399 13.6657 14.399C13.9159 14.399 14.1559 14.2996 14.3329 14.1226C14.5099 13.9457 14.6093 13.7057 14.6093 13.4554C14.6093 13.2051 14.5099 12.9651 14.3329 12.7882Z" fill="#F0529C"/>
<path d="M2.3214 14.1225L14.3318 2.11213C14.5087 1.93516 14.6082 1.69515 14.6082 1.44489C14.6082 1.19462 14.5087 0.954606 14.3318 0.777642C14.1548 0.600678 13.9148 0.50126 13.6645 0.50126C13.4143 0.50126 13.1743 0.600678 12.9973 0.777642L0.986909 12.788C0.809945 12.965 0.710527 13.205 0.710527 13.4553C0.710527 13.7055 0.809946 13.9455 0.98691 14.1225C1.16387 14.2995 1.40389 14.3989 1.65415 14.3989C1.90442 14.3989 2.14443 14.2995 2.3214 14.1225Z" fill="#F0529C"/>
</svg>
